<svg width="42" height="42" viewBox="0 0 42 42" fill="none" xmlns="http://www.w3.org/2000/svg">
<path d="M16.0474 27.2649C15.7149 27.2649 15.3824 27.1424 15.1199 26.8799C14.6124 26.3724 14.6124 25.5324 15.1199 25.0249L25.0249 15.1199C25.5324 14.6124 26.3724 14.6124 26.8799 15.1199C27.3874 15.6274 27.3874 16.4674 26.8799 16.9749L16.9749 26.8799C16.7299 27.1424 16.3799 27.2649 16.0474 27.2649Z" fill="#F11010"/>
<path d="M25.9524 27.2649C25.6199 27.2649 25.2874 27.1424 25.0249 26.8799L15.1199 16.9749C14.6124 16.4674 14.6124 15.6274 15.1199 15.1199C15.6274 14.6124 16.4674 14.6124 16.9749 15.1199L26.8799 25.0249C27.3874 25.5324 27.3874 26.3724 26.8799 26.8799C26.6174 27.1424 26.2849 27.2649 25.9524 27.2649Z" fill="#F11010"/>
<path d="M26.25 39.8125H15.75C6.2475 39.8125 2.1875 35.7525 2.1875 26.25V15.75C2.1875 6.2475 6.2475 2.1875 15.75 2.1875H26.25C35.7525 2.1875 39.8125 6.2475 39.8125 15.75V26.25C39.8125 35.7525 35.7525 39.8125 26.25 39.8125ZM15.75 4.8125C7.6825 4.8125 4.8125 7.6825 4.8125 15.75V26.25C4.8125 34.3175 7.6825 37.1875 15.75 37.1875H26.25C34.3175 37.1875 37.1875 34.3175 37.1875 26.25V15.75C37.1875 7.6825 34.3175 4.8125 26.25 4.8125H15.75Z" fill="#F11010"/>
</svg>
