<svg width="22" height="22" viewBox="0 0 22 22" fill="none" xmlns="http://www.w3.org/2000/svg">
<path d="M11.0036 0C6.41117 0 5.06807 0.00473946 4.80699 0.0263999C3.86456 0.10476 3.27812 0.253191 2.63921 0.571363C2.14685 0.81593 1.75853 1.09941 1.3753 1.4968C0.677357 2.22151 0.254359 3.11309 0.10123 4.1729C0.0267866 4.68741 0.00512592 4.79234 0.000727306 7.42038C-0.000960631 8.29639 0.000727306 9.44929 0.000727306 10.9957C0.000727306 15.5856 0.00579941 16.9277 0.0278008 17.1884C0.103941 18.1057 0.247756 18.6828 0.552317 19.3141C1.13436 20.5225 2.24599 21.4296 3.5556 21.7681C4.00905 21.8849 4.50988 21.9492 5.15284 21.9797C5.42525 21.9915 8.2018 22 10.98 22C13.7583 22 16.5365 21.9966 16.8022 21.9831C17.5467 21.948 17.979 21.89 18.457 21.7664C19.775 21.4263 20.8664 20.5326 21.4602 19.3073C21.7589 18.6913 21.9103 18.0921 21.9788 17.2227C21.9937 17.0332 22 14.011 22 10.9928C22 7.97415 21.9932 4.95752 21.9783 4.76797C21.9089 3.88451 21.7575 3.29046 21.4492 2.66256C21.1963 2.14856 20.9154 1.76471 20.5077 1.37224C19.7799 0.676979 18.8899 0.253864 17.8294 0.100869C17.3155 0.0265663 17.2132 0.00456491 14.5838 0H11.0036Z" fill="url(#paint0_radial_331_3267)"/>
<path d="M11.0036 0C6.41117 0 5.06807 0.00473946 4.80699 0.0263999C3.86456 0.10476 3.27812 0.253191 2.63921 0.571363C2.14685 0.81593 1.75853 1.09941 1.3753 1.4968C0.677357 2.22151 0.254359 3.11309 0.10123 4.1729C0.0267866 4.68741 0.00512592 4.79234 0.000727306 7.42038C-0.000960631 8.29639 0.000727306 9.44929 0.000727306 10.9957C0.000727306 15.5856 0.00579941 16.9277 0.0278008 17.1884C0.103941 18.1057 0.247756 18.6828 0.552317 19.3141C1.13436 20.5225 2.24599 21.4296 3.5556 21.7681C4.00905 21.8849 4.50988 21.9492 5.15284 21.9797C5.42525 21.9915 8.2018 22 10.98 22C13.7583 22 16.5365 21.9966 16.8022 21.9831C17.5467 21.948 17.979 21.89 18.457 21.7664C19.775 21.4263 20.8664 20.5326 21.4602 19.3073C21.7589 18.6913 21.9103 18.0921 21.9788 17.2227C21.9937 17.0332 22 14.011 22 10.9928C22 7.97415 21.9932 4.95752 21.9783 4.76797C21.9089 3.88451 21.7575 3.29046 21.4492 2.66256C21.1963 2.14856 20.9154 1.76471 20.5077 1.37224C19.7799 0.676979 18.8899 0.253864 17.8294 0.100869C17.3155 0.0265663 17.2132 0.00456491 14.5838 0H11.0036Z" fill="url(#paint1_radial_331_3267)"/>
<path d="M11.0036 0C6.41117 0 5.06807 0.00473946 4.80699 0.0263999C3.86456 0.10476 3.27812 0.253191 2.63921 0.571363C2.14685 0.81593 1.75853 1.09941 1.3753 1.4968C0.677357 2.22151 0.254359 3.11309 0.10123 4.1729C0.0267866 4.68741 0.00512592 4.79234 0.000727306 7.42038C-0.000960631 8.29639 0.000727306 9.44929 0.000727306 10.9957C0.000727306 15.5856 0.00579941 16.9277 0.0278008 17.1884C0.103941 18.1057 0.247756 18.6828 0.552317 19.3141C1.13436 20.5225 2.24599 21.4296 3.5556 21.7681C4.00905 21.8849 4.50988 21.9492 5.15284 21.9797C5.42525 21.9915 8.2018 22 10.98 22C13.7583 22 16.5365 21.9966 16.8022 21.9831C17.5467 21.948 17.979 21.89 18.457 21.7664C19.775 21.4263 20.8664 20.5326 21.4602 19.3073C21.7589 18.6913 21.9103 18.0921 21.9788 17.2227C21.9937 17.0332 22 14.011 22 10.9928C22 7.97415 21.9932 4.95752 21.9783 4.76797C21.9089 3.88451 21.7575 3.29046 21.4492 2.66256C21.1963 2.14856 20.9154 1.76471 20.5077 1.37224C19.7799 0.676979 18.8899 0.253864 17.8294 0.100869C17.3155 0.0265663 17.2132 0.00456491 14.5838 0H11.0036Z" fill="url(#paint2_radial_331_3267)"/>
<path d="M11.0036 0C6.41117 0 5.06807 0.00473946 4.80699 0.0263999C3.86456 0.10476 3.27812 0.253191 2.63921 0.571363C2.14685 0.81593 1.75853 1.09941 1.3753 1.4968C0.677357 2.22151 0.254359 3.11309 0.10123 4.1729C0.0267866 4.68741 0.00512592 4.79234 0.000727306 7.42038C-0.000960631 8.29639 0.000727306 9.44929 0.000727306 10.9957C0.000727306 15.5856 0.00579941 16.9277 0.0278008 17.1884C0.103941 18.1057 0.247756 18.6828 0.552317 19.3141C1.13436 20.5225 2.24599 21.4296 3.5556 21.7681C4.00905 21.8849 4.50988 21.9492 5.15284 21.9797C5.42525 21.9915 8.2018 22 10.98 22C13.7583 22 16.5365 21.9966 16.8022 21.9831C17.5467 21.948 17.979 21.89 18.457 21.7664C19.775 21.4263 20.8664 20.5326 21.4602 19.3073C21.7589 18.6913 21.9103 18.0921 21.9788 17.2227C21.9937 17.0332 22 14.011 22 10.9928C22 7.97415 21.9932 4.95752 21.9783 4.76797C21.9089 3.88451 21.7575 3.29046 21.4492 2.66256C21.1963 2.14856 20.9154 1.76471 20.5077 1.37224C19.7799 0.676979 18.8899 0.253864 17.8294 0.100869C17.3155 0.0265663 17.2132 0.00456491 14.5838 0H11.0036Z" fill="url(#paint3_radial_331_3267)"/>
<path d="M11.0044 2.82471C8.78295 2.82471 8.50416 2.83441 7.63164 2.87409C6.76084 2.91393 6.16645 3.0517 5.64635 3.25383C5.10836 3.4626 4.65199 3.74186 4.19734 4.19635C3.74234 4.65068 3.46286 5.1067 3.25326 5.64412C3.05046 6.164 2.91243 6.75812 2.87324 7.62794C2.83422 8.4998 2.82399 8.77856 2.82399 10.9984C2.82399 13.2182 2.83388 13.496 2.87341 14.3678C2.91346 15.238 3.05132 15.8319 3.25342 16.3517C3.46252 16.8892 3.74199 17.3453 4.19682 17.7996C4.65132 18.2542 5.10768 18.5342 5.64532 18.743C6.16576 18.9451 6.76033 19.0829 7.63096 19.1227C8.50347 19.1624 8.78209 19.1721 11.0034 19.1721C13.2251 19.1721 13.503 19.1624 14.3755 19.1227C15.2463 19.0829 15.8414 18.9451 16.3618 18.743C16.8997 18.5342 17.3553 18.2542 17.8098 17.7996C18.2648 17.3453 18.5443 16.8892 18.7539 16.3518C18.955 15.8319 19.093 15.2378 19.1339 14.368C19.1731 13.4961 19.1833 13.2182 19.1833 10.9984C19.1833 8.77855 19.1731 8.49998 19.1339 7.62811C19.093 6.75795 18.955 6.164 18.7539 5.64429C18.5443 5.1067 18.2648 4.65067 17.8098 4.19635C17.3548 3.74169 16.8998 3.46242 16.3613 3.25383C15.8399 3.0517 15.2451 2.91393 14.3743 2.87409C13.5018 2.83441 13.224 2.82471 11.0019 2.82471H11.0044ZM10.2706 4.29768C10.4884 4.29734 10.7314 4.29768 11.0044 4.29768C13.1884 4.29768 13.4473 4.30551 14.3097 4.34467C15.1073 4.38112 15.5401 4.51427 15.8284 4.62615C16.2102 4.7743 16.4823 4.9514 16.7684 5.23748C17.0547 5.52356 17.232 5.79602 17.3806 6.17745C17.4925 6.46523 17.626 6.89776 17.6622 7.6947C17.7014 8.55633 17.71 8.81517 17.71 10.9965C17.71 13.1779 17.7014 13.4367 17.6622 14.2984C17.6258 15.0953 17.4925 15.5278 17.3806 15.8156C17.2323 16.197 17.0547 16.4686 16.7684 16.7545C16.4822 17.0406 16.2103 17.2177 15.8284 17.3659C15.5405 17.4783 15.1073 17.6111 14.3097 17.6475C13.4475 17.6867 13.1884 17.6952 11.0044 17.6952C8.82027 17.6952 8.56141 17.6867 7.69913 17.6475C6.90161 17.6107 6.46876 17.4776 6.18025 17.3657C5.79853 17.2176 5.52586 17.0405 5.23958 16.7544C4.95329 16.4683 4.77606 16.1965 4.62746 15.8149C4.51549 15.5271 4.38206 15.0946 4.34577 14.2977C4.30657 13.436 4.29873 13.1772 4.29873 10.9945C4.29873 8.81177 4.30657 8.55429 4.34577 7.69265C4.38224 6.89571 4.51549 6.46319 4.62746 6.17507C4.77571 5.79363 4.95329 5.52117 5.23958 5.2351C5.52586 4.94901 5.79853 4.77192 6.18025 4.62343C6.46859 4.51104 6.90161 4.37822 7.69913 4.34161C8.45371 4.30755 8.74614 4.29734 10.2706 4.29562L10.2706 4.29768ZM15.3707 5.65485C14.8288 5.65485 14.3891 6.09368 14.3891 6.63535C14.3891 7.17686 14.8288 7.6162 15.3707 7.6162C15.9126 7.6162 16.3523 7.17686 16.3523 6.63535C16.3523 6.09384 15.9126 5.65451 15.3707 5.65451L15.3707 5.65485ZM11.0044 6.80086C8.68462 6.80086 6.80379 8.6803 6.80379 10.9984C6.80379 13.3165 8.68462 15.1951 11.0044 15.1951C13.3242 15.1951 15.2044 13.3165 15.2044 10.9984C15.2044 8.6803 13.3241 6.80086 11.0043 6.80086H11.0044ZM11.0044 8.27383C12.5102 8.27383 13.731 9.49359 13.731 10.9984C13.731 12.503 12.5102 13.723 11.0044 13.723C9.49851 13.723 8.27785 12.503 8.27785 10.9984C8.27785 9.49359 9.49851 8.27383 11.0044 8.27383Z" fill="white"/>
<defs>
<radialGradient id="paint0_radial_331_3267" cx="0" cy="0" r="1" gradientUnits="userSpaceOnUse" gradientTransform="translate(21.2896 10.3117) rotate(164.25) scale(14.0568 10.1272)">
<stop stop-color="#FF005F"/>
<stop offset="1" stop-color="#FC01D8"/>
</radialGradient>
<radialGradient id="paint1_radial_331_3267" cx="0" cy="0" r="1" gradientUnits="userSpaceOnUse" gradientTransform="translate(5.84356 23.6944) rotate(-90) scale(17.5608 18.6317)">
<stop stop-color="#FFCC00"/>
<stop offset="0.1242" stop-color="#FFCC00"/>
<stop offset="0.5672" stop-color="#FE4A05"/>
<stop offset="0.6942" stop-color="#FF0F3F"/>
<stop offset="1" stop-color="#FE0657" stop-opacity="0"/>
</radialGradient>
<radialGradient id="paint2_radial_331_3267" cx="0" cy="0" r="1" gradientUnits="userSpaceOnUse" gradientTransform="translate(11.5559 21.6897) rotate(-59.8703) scale(7.26155 9.45372)">
<stop stop-color="#FFCC00"/>
<stop offset="1" stop-color="#FFCC00" stop-opacity="0"/>
</radialGradient>
<radialGradient id="paint3_radial_331_3267" cx="0" cy="0" r="1" gradientUnits="userSpaceOnUse" gradientTransform="translate(2.98491 0.895834) rotate(164.274) scale(13.9008 4.736)">
<stop stop-color="#780CFF"/>
<stop offset="1" stop-color="#820BFF" stop-opacity="0"/>
</radialGradient>
</defs>
</svg>
