<svg width="25" height="21" viewBox="0 0 25 21" fill="none" xmlns="http://www.w3.org/2000/svg">
<g clip-path="url(#clip0_331_3274)">
<path d="M23.6562 19.6441C23.7095 19.6446 23.7625 19.6343 23.8116 19.6137C23.8608 19.5932 23.9052 19.5628 23.942 19.5246C23.9789 19.4863 24.0074 19.441 24.0258 19.3913C24.0442 19.3417 24.0521 19.2889 24.049 19.2361C24.049 18.9468 23.8727 18.8086 23.511 18.8086H22.9267V20.3233H23.1465V19.6631H23.4166L23.4227 19.6711L23.8419 20.3233H24.0769L23.626 19.6483L23.6562 19.6441ZM23.402 19.4924H23.1471V18.9803H23.4701C23.637 18.9803 23.8273 19.0073 23.8273 19.2236C23.8273 19.4724 23.6347 19.4924 23.4007 19.4924" fill="#0A66C2"/>
<path d="M17.9225 17.7458H14.8058V12.9129C14.8058 11.7604 14.785 10.2769 13.1848 10.2769C11.5614 10.2769 11.3131 11.5325 11.3131 12.829V17.7455H8.1963V7.80706H11.1884V9.16524H11.2303C11.5297 8.65831 11.9624 8.24128 12.4823 7.95857C13.0022 7.67586 13.5897 7.53807 14.1824 7.55985C17.3414 7.55985 17.9238 9.61722 17.9238 12.2937L17.9225 17.7458ZM4.67957 6.44855C4.32185 6.44861 3.97213 6.34364 3.67465 6.14691C3.37718 5.95018 3.14532 5.67052 3.00837 5.3433C2.87141 5.01609 2.83552 4.65601 2.90524 4.3086C2.97497 3.96119 3.14718 3.64206 3.40008 3.39155C3.65299 3.14105 3.97524 2.97043 4.32608 2.90126C4.67692 2.8321 5.04058 2.8675 5.3711 3.00299C5.70162 3.13848 5.98414 3.36797 6.18294 3.66244C6.38173 3.95691 6.48788 4.30314 6.48794 4.65735C6.48799 4.89253 6.44124 5.12541 6.35038 5.34271C6.25953 5.56001 6.12635 5.75745 5.95843 5.92378C5.7905 6.09011 5.59112 6.22206 5.3717 6.3121C5.15227 6.40214 4.91709 6.44851 4.67957 6.44855ZM6.23795 17.7458H3.11795V7.80706H6.23795V17.7458ZM19.4764 0.000930717H1.55178C1.14495 -0.00361523 0.752911 0.151953 0.461856 0.433451C0.170801 0.714948 0.00453798 1.09934 -0.000427246 1.50217V19.3239C0.00436805 19.7269 0.170533 20.1115 0.461578 20.3933C0.752623 20.6751 1.14475 20.831 1.55178 20.8267H19.4764C19.8842 20.8318 20.2774 20.6763 20.5696 20.3946C20.8618 20.1128 21.0291 19.7277 21.0348 19.3239V1.50089C21.0289 1.09726 20.8615 0.712426 20.5693 0.430936C20.2771 0.149445 19.884 -0.00567899 19.4764 -0.000355662" fill="#0A66C2"/>
<path d="M23.4286 18.1343C23.0494 18.1379 22.6871 18.29 22.4209 18.5575C22.1547 18.8249 22.0062 19.1858 22.0081 19.5613C22.0099 19.9368 22.1618 20.2962 22.4306 20.5611C22.6994 20.826 23.0632 20.9747 23.4424 20.9747C23.8216 20.9747 24.1854 20.826 24.4542 20.5611C24.723 20.2962 24.8749 19.9368 24.8768 19.5613C24.8786 19.1858 24.7302 18.8249 24.464 18.5575C24.1978 18.29 23.8354 18.1379 23.4562 18.1343H23.4286ZM23.4286 20.8121C23.1799 20.8162 22.9355 20.7472 22.7264 20.6137C22.5173 20.4803 22.3529 20.2885 22.2539 20.0626C22.1549 19.8366 22.1257 19.5866 22.1702 19.3443C22.2147 19.102 22.3307 18.8781 22.5037 18.7011C22.6766 18.524 22.8987 18.4018 23.1418 18.3497C23.385 18.2976 23.6382 18.3181 23.8696 18.4086C24.101 18.499 24.3001 18.6554 24.4417 18.8579C24.5833 19.0604 24.6611 19.2999 24.6653 19.5461C24.6653 19.5532 24.6653 19.56 24.6653 19.567C24.6722 19.8901 24.5493 20.2027 24.3236 20.4361C24.0978 20.6694 23.7877 20.8044 23.4614 20.8114H23.4289" fill="#0A66C2"/>
</g>
<defs>
<clipPath id="clip0_331_3274">
<rect width="24.8769" height="21" fill="white"/>
</clipPath>
</defs>
</svg>
