<svg width="32" height="32" viewBox="0 0 32 32" fill="none" xmlns="http://www.w3.org/2000/svg">
<path d="M22.6665 28.3337H9.33317C4.4665 28.3337 1.6665 25.5337 1.6665 20.667V11.3337C1.6665 6.46699 4.4665 3.66699 9.33317 3.66699H15.9998C16.5465 3.66699 16.9998 4.12033 16.9998 4.66699C16.9998 5.21366 16.5465 5.66699 15.9998 5.66699H9.33317C5.51984 5.66699 3.6665 7.52033 3.6665 11.3337V20.667C3.6665 24.4803 5.51984 26.3337 9.33317 26.3337H22.6665C26.4798 26.3337 28.3332 24.4803 28.3332 20.667V15.3337C28.3332 14.787 28.7865 14.3337 29.3332 14.3337C29.8798 14.3337 30.3332 14.787 30.3332 15.3337V20.667C30.3332 25.5337 27.5332 28.3337 22.6665 28.3337Z" fill="#30C10B"/>
<path d="M15.9999 17.1597C14.8799 17.1597 13.7465 16.813 12.8799 16.1064L8.70653 12.773C8.27987 12.4264 8.19987 11.7997 8.54654 11.373C8.8932 10.9464 9.51986 10.8664 9.94652 11.213L14.1199 14.5464C15.1332 15.3597 16.8532 15.3597 17.8665 14.5464C18.2932 14.1997 18.9199 14.2664 19.2666 14.7064C19.6132 15.133 19.5465 15.773 19.1065 16.1064C18.2532 16.813 17.1199 17.1597 15.9999 17.1597Z" fill="#30C10B"/>
<path d="M22.3204 13C21.7737 13 21.4004 12.8133 21.1604 12.64C20.7204 12.32 20.0404 11.52 20.4404 9.75999L20.5071 9.47998C20.5337 9.37331 20.4537 9.11998 20.3871 9.03998L19.9204 8.5733C19.1337 7.7733 18.8271 6.83998 19.0937 5.99998C19.3604 5.17331 20.1471 4.58665 21.2537 4.39998L21.7604 4.31999C21.8537 4.29332 22.0404 4.15998 22.0937 4.06665L22.4671 3.30664C22.9871 2.25331 23.7871 1.65332 24.6671 1.65332C25.5471 1.65332 26.3471 2.25331 26.8671 3.30664L27.2404 4.06665C27.2804 4.14665 27.4804 4.29332 27.5737 4.31999L28.0804 4.39998C29.1871 4.58665 29.9737 5.17331 30.2404 5.99998C30.5071 6.82665 30.2137 7.75997 29.4137 8.5733L28.9471 9.03998C28.8804 9.11998 28.8004 9.37331 28.8271 9.47998L28.8938 9.75999C29.2938 11.52 28.6137 12.32 28.1737 12.64C27.7337 12.96 26.7737 13.3467 25.2404 12.4267L24.9071 12.2266C24.8137 12.1733 24.5471 12.1733 24.4537 12.2266L24.107 12.4267C23.3871 12.8533 22.7871 13 22.3204 13ZM24.6537 3.66665C24.6404 3.67998 24.4538 3.8133 24.2671 4.19997L23.8938 4.95998C23.5738 5.61331 22.8137 6.17331 22.1071 6.29331L21.6004 6.37331C21.1738 6.43998 21.0271 6.58666 21.0137 6.61332C21.0137 6.63999 21.0537 6.85331 21.3604 7.15997L21.8271 7.62665C22.3737 8.18665 22.6537 9.14664 22.4804 9.90664L22.4137 10.1866C22.3071 10.6666 22.3471 10.92 22.3737 11.0133C22.4004 10.9866 22.6404 10.96 23.0804 10.6933L23.4271 10.4933C24.1604 10.0533 25.2137 10.0533 25.9471 10.4933L26.2804 10.6933C26.7204 10.96 26.9471 10.9867 27.0271 10.9867C27.0137 10.9467 27.0671 10.7066 26.9471 10.1866L26.8804 9.90664C26.7071 9.1333 26.9871 8.18665 27.5337 7.62665L28.0004 7.15997C28.3071 6.85331 28.3471 6.63998 28.3471 6.59998C28.3337 6.57331 28.1871 6.43999 27.7604 6.35998L27.2537 6.27999C26.5337 6.15999 25.7871 5.59999 25.4671 4.94666L25.0937 4.19997C24.8804 3.79997 24.7071 3.67998 24.6537 3.66665Z" fill="#30C10B"/>
</svg>
