<svg width="42" height="42" viewBox="0 0 42 42" fill="none" xmlns="http://www.w3.org/2000/svg">
<path d="M21 39.8125C10.6225 39.8125 2.1875 31.3775 2.1875 21C2.1875 10.6225 10.6225 2.1875 21 2.1875C31.3775 2.1875 39.8125 10.6225 39.8125 21C39.8125 31.3775 31.3775 39.8125 21 39.8125ZM21 4.8125C12.075 4.8125 4.8125 12.075 4.8125 21C4.8125 29.925 12.075 37.1875 21 37.1875C29.925 37.1875 37.1875 29.925 37.1875 21C37.1875 12.075 29.925 4.8125 21 4.8125Z" fill="#30C10B"/>
<path d="M18.5145 27.2648C18.1645 27.2648 17.832 27.1248 17.587 26.8798L12.6345 21.9273C12.127 21.4198 12.127 20.5798 12.6345 20.0723C13.142 19.5648 13.982 19.5648 14.4895 20.0723L18.5145 24.0973L27.5095 15.1023C28.017 14.5948 28.857 14.5948 29.3645 15.1023C29.872 15.6098 29.872 16.4498 29.3645 16.9573L19.442 26.8798C19.197 27.1248 18.8645 27.2648 18.5145 27.2648Z" fill="#30C10B"/>
</svg>
